<svg width="25" height="25" viewBox="0 0 25 25" fill="none" xmlns="http://www.w3.org/2000/svg">
<g id="Phone" clip-path="url(#clip0_32_23178)">
<path id="Icon" d="M22.9166 17.625V20.75C22.9178 21.0401 22.8584 21.3273 22.7421 21.5931C22.6259 21.8589 22.4555 22.0975 22.2417 22.2936C22.0279 22.4898 21.7755 22.6391 21.5007 22.732C21.2259 22.8249 20.9347 22.8595 20.6458 22.8334C17.4404 22.4851 14.3614 21.3898 11.6562 19.6354C9.13935 18.0361 7.00551 15.9023 5.4062 13.3854C3.64576 10.6679 2.5502 7.57397 2.20828 4.35419C2.18225 4.06613 2.21649 3.77581 2.30881 3.50171C2.40112 3.22761 2.5495 2.97574 2.7445 2.76212C2.93949 2.54851 3.17683 2.37784 3.4414 2.26098C3.70597 2.14412 3.99197 2.08363 4.2812 2.08335H7.4062C7.91173 2.07838 8.40182 2.25739 8.78512 2.58703C9.16842 2.91667 9.41878 3.37444 9.48953 3.87502C9.62143 4.87509 9.86604 5.85703 10.2187 6.8021C10.3588 7.17494 10.3892 7.58014 10.3061 7.96969C10.223 8.35923 10.03 8.7168 9.74995 9.00002L8.42703 10.3229C9.9099 12.9308 12.0692 15.0901 14.677 16.5729L15.9999 15.25C16.2832 14.97 16.6407 14.7769 17.0303 14.6939C17.4198 14.6108 17.825 14.6411 18.1979 14.7813C19.1429 15.1339 20.1249 15.3785 21.125 15.5104C21.631 15.5818 22.0931 15.8367 22.4234 16.2266C22.7538 16.6165 22.9293 17.1142 22.9166 17.625Z" stroke="white" stroke-width="4" stroke-linecap="round" stroke-linejoin="round"/>
</g>
<defs>
<clipPath id="clip0_32_23178">
<rect width="25" height="25" fill="white"/>
</clipPath>
</defs>
</svg>
