<svg width="25" height="25" viewBox="0 0 25 25" fill="none" xmlns="http://www.w3.org/2000/svg">
<g id="Github" clip-path="url(#clip0_32_23174)">
<path id="Icon" d="M9.37501 19.7916C4.16668 21.3541 4.16668 17.1874 2.08334 16.6666M16.6667 22.9166V18.8853C16.7058 18.3886 16.6386 17.8893 16.4698 17.4205C16.301 16.9518 16.0343 16.5243 15.6875 16.1666C18.9583 15.802 22.3958 14.5624 22.3958 8.87491C22.3956 7.42057 21.8361 6.022 20.8333 4.96866C21.3082 3.69628 21.2746 2.28986 20.7396 1.04158C20.7396 1.04158 19.5104 0.676998 16.6667 2.58325C14.2792 1.93619 11.7625 1.93619 9.37501 2.58325C6.53126 0.676998 5.30209 1.04158 5.30209 1.04158C4.76707 2.28986 4.73349 3.69628 5.20834 4.96866C4.19806 6.02981 3.63805 7.44102 3.64584 8.90616C3.64584 14.552 7.08334 15.7916 10.3542 16.1978C10.0115 16.552 9.74716 16.9743 9.57846 17.4373C9.40975 17.9004 9.34043 18.3937 9.37501 18.8853V22.9166" stroke="white" stroke-width="4" stroke-linecap="round" stroke-linejoin="round"/>
</g>
<defs>
<clipPath id="clip0_32_23174">
<rect width="25" height="25" fill="white"/>
</clipPath>
</defs>
</svg>
