<svg width="16" height="16" viewBox="0 0 16 16" fill="none" xmlns="http://www.w3.org/2000/svg">
<g id="Icon/Font Awesome Free/Solid/P/plus-circle">
<path id="Vector" d="M8.00004 1.33325C4.31725 1.33325 1.33337 4.31712 1.33337 7.99992C1.33337 11.6827 4.31725 14.6666 8.00004 14.6666C11.6828 14.6666 14.6667 11.6827 14.6667 7.99992C14.6667 4.31712 11.6828 1.33325 8.00004 1.33325ZM11.871 8.75261C11.871 8.93003 11.7258 9.07519 11.5484 9.07519H9.07531V11.5483C9.07531 11.7257 8.93015 11.8709 8.75273 11.8709H7.24735C7.06993 11.8709 6.92477 11.7257 6.92477 11.5483V9.07519H4.45165C4.27423 9.07519 4.12907 8.93003 4.12907 8.75261V7.24723C4.12907 7.06981 4.27423 6.92465 4.45165 6.92465H6.92477V4.45153C6.92477 4.27411 7.06993 4.12895 7.24735 4.12895H8.75273C8.93015 4.12895 9.07531 4.27411 9.07531 4.45153V6.92465H11.5484C11.7258 6.92465 11.871 7.06981 11.871 7.24723V8.75261Z" fill="white"/>
</g>
</svg>
