<svg width="12" height="12" viewBox="0 0 12 12" fill="none" xmlns="http://www.w3.org/2000/svg">
<g id="Icon/Font Awesome Free/Solid/E/ellipsis-v">
<path id="Vector" d="M5.99995 4.54839C6.80237 4.54839 7.45157 5.19758 7.45157 6C7.45157 6.80242 6.80237 7.45161 5.99995 7.45161C5.19753 7.45161 4.54834 6.80242 4.54834 6C4.54834 5.19758 5.19753 4.54839 5.99995 4.54839ZM4.54834 2.45161C4.54834 3.25403 5.19753 3.90323 5.99995 3.90323C6.80237 3.90323 7.45157 3.25403 7.45157 2.45161C7.45157 1.64919 6.80237 1 5.99995 1C5.19753 1 4.54834 1.64919 4.54834 2.45161ZM4.54834 9.54839C4.54834 10.3508 5.19753 11 5.99995 11C6.80237 11 7.45157 10.3508 7.45157 9.54839C7.45157 8.74597 6.80237 8.09677 5.99995 8.09677C5.19753 8.09677 4.54834 8.74597 4.54834 9.54839Z" fill="black"/>
</g>
</svg>
