<svg width="16" height="16" viewBox="0 0 16 16" fill="none" xmlns="http://www.w3.org/2000/svg">
<g id="Icon/Font Awesome Free/Solid/B/bars">
<path id="Vector" d="M1.80944 4.30936H14.1904C14.4534 4.30936 14.6666 4.09618 14.6666 3.83317V2.64269C14.6666 2.37969 14.4534 2.1665 14.1904 2.1665H1.80944C1.54644 2.1665 1.33325 2.37969 1.33325 2.64269V3.83317C1.33325 4.09618 1.54644 4.30936 1.80944 4.30936ZM1.80944 9.07127H14.1904C14.4534 9.07127 14.6666 8.85808 14.6666 8.59508V7.4046C14.6666 7.14159 14.4534 6.92841 14.1904 6.92841H1.80944C1.54644 6.92841 1.33325 7.14159 1.33325 7.4046V8.59508C1.33325 8.85808 1.54644 9.07127 1.80944 9.07127ZM1.80944 13.8332H14.1904C14.4534 13.8332 14.6666 13.62 14.6666 13.357V12.1665C14.6666 11.9035 14.4534 11.6903 14.1904 11.6903H1.80944C1.54644 11.6903 1.33325 11.9035 1.33325 12.1665V13.357C1.33325 13.62 1.54644 13.8332 1.80944 13.8332Z" fill="#333333"/>
</g>
</svg>
