<svg width="12" height="12" viewBox="0 0 12 12" fill="none" xmlns="http://www.w3.org/2000/svg">
<g id="Icon/Font Awesome Free/Solid/P/plus">
<path id="Vector" d="M10.2857 4.92857H7.07143V1.71429C7.07143 1.31987 6.75156 1 6.35714 1H5.64286C5.24844 1 4.92857 1.31987 4.92857 1.71429V4.92857H1.71429C1.31987 4.92857 1 5.24844 1 5.64286V6.35714C1 6.75156 1.31987 7.07143 1.71429 7.07143H4.92857V10.2857C4.92857 10.6801 5.24844 11 5.64286 11H6.35714C6.75156 11 7.07143 10.6801 7.07143 10.2857V7.07143H10.2857C10.6801 7.07143 11 6.75156 11 6.35714V5.64286C11 5.24844 10.6801 4.92857 10.2857 4.92857Z" fill="black"/>
</g>
</svg>
