<svg width="24" height="24" viewBox="0 0 24 24" fill="none" xmlns="http://www.w3.org/2000/svg">
<g id="Icon/Font Awesome Free/Solid/L/list-ul">
<path id="Vector" d="M3.875 3.875C3.50416 3.875 3.14165 3.98497 2.83331 4.19099C2.52496 4.39702 2.28464 4.68986 2.14273 5.03247C2.00081 5.37508 1.96368 5.75208 2.03603 6.11579C2.10838 6.47951 2.28695 6.8136 2.54918 7.07583C2.8114 7.33805 3.14549 7.51663 3.50921 7.58897C3.87292 7.66132 4.24992 7.62419 4.59253 7.48227C4.93514 7.34036 5.22798 7.10004 5.43401 6.79169C5.64003 6.48335 5.75 6.12084 5.75 5.75C5.75 5.25272 5.55246 4.77581 5.20083 4.42417C4.8492 4.07254 4.37228 3.875 3.875 3.875ZM3.875 10.125C3.50416 10.125 3.14165 10.235 2.83331 10.441C2.52496 10.647 2.28464 10.9399 2.14273 11.2825C2.00081 11.6251 1.96368 12.0021 2.03603 12.3658C2.10838 12.7295 2.28695 13.0636 2.54918 13.3258C2.8114 13.588 3.14549 13.7666 3.50921 13.839C3.87292 13.9113 4.24992 13.8742 4.59253 13.7323C4.93514 13.5904 5.22798 13.35 5.43401 13.0417C5.64003 12.7334 5.75 12.3708 5.75 12C5.75 11.5027 5.55246 11.0258 5.20083 10.6742C4.8492 10.3225 4.37228 10.125 3.875 10.125ZM3.875 16.375C3.50416 16.375 3.14165 16.485 2.83331 16.691C2.52496 16.897 2.28464 17.1899 2.14273 17.5325C2.00081 17.8751 1.96368 18.2521 2.03603 18.6158C2.10838 18.9795 2.28695 19.3136 2.54918 19.5758C2.8114 19.838 3.14549 20.0166 3.50921 20.089C3.87292 20.1613 4.24992 20.1242 4.59253 19.9823C4.93514 19.8404 5.22798 19.6 5.43401 19.2917C5.64003 18.9834 5.75 18.6208 5.75 18.25C5.75 17.7527 5.55246 17.2758 5.20083 16.9242C4.8492 16.5725 4.37228 16.375 3.875 16.375ZM21.375 17H8.875C8.70924 17 8.55027 17.0658 8.43306 17.1831C8.31585 17.3003 8.25 17.4592 8.25 17.625V18.875C8.25 19.0408 8.31585 19.1997 8.43306 19.3169C8.55027 19.4342 8.70924 19.5 8.875 19.5H21.375C21.5408 19.5 21.6997 19.4342 21.8169 19.3169C21.9342 19.1997 22 19.0408 22 18.875V17.625C22 17.4592 21.9342 17.3003 21.8169 17.1831C21.6997 17.0658 21.5408 17 21.375 17ZM21.375 4.5H8.875C8.70924 4.5 8.55027 4.56585 8.43306 4.68306C8.31585 4.80027 8.25 4.95924 8.25 5.125V6.375C8.25 6.54076 8.31585 6.69973 8.43306 6.81694C8.55027 6.93415 8.70924 7 8.875 7H21.375C21.5408 7 21.6997 6.93415 21.8169 6.81694C21.9342 6.69973 22 6.54076 22 6.375V5.125C22 4.95924 21.9342 4.80027 21.8169 4.68306C21.6997 4.56585 21.5408 4.5 21.375 4.5ZM21.375 10.75H8.875C8.70924 10.75 8.55027 10.8158 8.43306 10.9331C8.31585 11.0503 8.25 11.2092 8.25 11.375V12.625C8.25 12.7908 8.31585 12.9497 8.43306 13.0669C8.55027 13.1842 8.70924 13.25 8.875 13.25H21.375C21.5408 13.25 21.6997 13.1842 21.8169 13.0669C21.9342 12.9497 22 12.7908 22 12.625V11.375C22 11.2092 21.9342 11.0503 21.8169 10.9331C21.6997 10.8158 21.5408 10.75 21.375 10.75Z" fill="black"/>
</g>
</svg>
