<svg width="16" height="16" viewBox="0 0 16 16" fill="none" xmlns="http://www.w3.org/2000/svg">
<g id="Icon/Font Awesome Free/Solid/P/plus-circle">
<path id="Vector" d="M7.99992 1.3335C4.31712 1.3335 1.33325 4.31737 1.33325 8.00016C1.33325 11.683 4.31712 14.6668 7.99992 14.6668C11.6827 14.6668 14.6666 11.683 14.6666 8.00016C14.6666 4.31737 11.6827 1.3335 7.99992 1.3335ZM11.8709 8.75285C11.8709 8.93027 11.7257 9.07543 11.5483 9.07543H9.07519V11.5485C9.07519 11.726 8.93003 11.8711 8.75261 11.8711H7.24723C7.06981 11.8711 6.92465 11.726 6.92465 11.5485V9.07543H4.45153C4.27411 9.07543 4.12895 8.93027 4.12895 8.75285V7.24747C4.12895 7.07006 4.27411 6.92489 4.45153 6.92489H6.92465V4.45178C6.92465 4.27436 7.06981 4.12919 7.24723 4.12919H8.75261C8.93003 4.12919 9.07519 4.27436 9.07519 4.45178V6.92489H11.5483C11.7257 6.92489 11.8709 7.07006 11.8709 7.24747V8.75285Z" fill="white"/>
</g>
</svg>
