<?xml version="1.0" standalone="no"?>
<!DOCTYPE svg PUBLIC "-//W3C//DTD SVG 20010904//EN"
 "http://www.w3.org/TR/2001/REC-SVG-20010904/DTD/svg10.dtd">
<svg version="1.0" xmlns="http://www.w3.org/2000/svg"
 width="500.000000pt" height="500.000000pt" viewBox="0 0 500.000000 500.000000"
 preserveAspectRatio="xMidYMid meet">

<g transform="translate(0.000000,500.000000) scale(0.100000,-0.100000)"
fill="#000000" stroke="none">
<path d="M2230 4564 c-14 -2 -65 -9 -115 -15 -262 -31 -552 -133 -790 -278
-494 -302 -858 -841 -958 -1421 -25 -143 -28 -169 -32 -315 -18 -711 342
-1407 935 -1803 342 -228 747 -353 1144 -354 189 0 323 16 491 57 416 102 748
286 1035 574 225 227 387 481 504 794 37 98 80 256 72 264 -2 2 -7 -10 -11
-27 -20 -90 -130 -316 -216 -441 -210 -306 -538 -560 -889 -687 -103 -38 -299
-88 -395 -101 -107 -15 -453 -7 -560 13 -665 124 -1182 547 -1419 1162 -81
211 -110 379 -111 644 0 226 11 309 66 504 217 771 925 1323 1719 1341 129 3
286 -6 360 -20 24 -4 30 -3 20 3 -23 14 -243 69 -350 87 -88 15 -440 28 -500
19z"/>
<path d="M2486 4228 c-4 -40 -23 -242 -43 -448 -35 -365 -36 -389 -41 -905
l-4 -530 -38 -26 c-112 -80 -108 -283 8 -364 35 -24 55 -30 112 -33 84 -5 144
20 192 79 l31 38 316 3 316 3 287 60 c158 33 284 63 280 66 -4 3 -131 22 -282
43 -269 36 -282 36 -596 36 l-321 0 -52 51 -51 52 0 401 c0 404 -7 588 -35
901 -17 192 -66 639 -69 643 -2 1 -6 -30 -10 -70z m83 -2023 c39 -38 36 -98
-7 -136 -68 -61 -172 -16 -172 74 0 29 34 75 64 88 33 14 88 2 115 -26z"/>
<path d="M3440 4251 c-34 -33 -45 -68 -36 -114 14 -73 107 -118 174 -83 45 23
62 53 62 109 0 42 -5 54 -34 83 -30 30 -40 34 -86 34 -43 0 -56 -4 -80 -29z"/>
<path d="M3994 3664 c-73 -36 -86 -144 -23 -196 26 -22 43 -28 82 -28 42 0 54
5 83 34 29 29 34 41 34 80 0 100 -87 154 -176 110z"/>
<path d="M4312 2890 c-103 -63 -57 -220 64 -220 51 0 89 21 110 61 56 110 -68
224 -174 159z"/>
</g>
</svg>
