<svg width="16" height="16" viewBox="0 0 16 16" fill="none" xmlns="http://www.w3.org/2000/svg">
<g id="Icon/Font Awesome Free/Solid/P/plus-circle">
<path id="Vector" d="M8.00001 1.33325C4.31721 1.33325 1.33334 4.31712 1.33334 7.99992C1.33334 11.6827 4.31721 14.6666 8.00001 14.6666C11.6828 14.6666 14.6667 11.6827 14.6667 7.99992C14.6667 4.31712 11.6828 1.33325 8.00001 1.33325ZM11.871 8.75261C11.871 8.93003 11.7258 9.07519 11.5484 9.07519H9.07528V11.5483C9.07528 11.7257 8.93012 11.8709 8.7527 11.8709H7.24732C7.0699 11.8709 6.92474 11.7257 6.92474 11.5483V9.07519H4.45162C4.2742 9.07519 4.12904 8.93003 4.12904 8.75261V7.24723C4.12904 7.06981 4.2742 6.92465 4.45162 6.92465H6.92474V4.45153C6.92474 4.27411 7.0699 4.12895 7.24732 4.12895H8.7527C8.93012 4.12895 9.07528 4.27411 9.07528 4.45153V6.92465H11.5484C11.7258 6.92465 11.871 7.06981 11.871 7.24723V8.75261Z" fill="white"/>
</g>
</svg>
